<mxfile host="app.diagrams.net" modified="2024-01-09T16:12:55.780Z" agent="Mozilla/5.0 (Windows NT 10.0; Win64; x64) AppleWebKit/537.36 (KHTML, like Gecko) Chrome/120.0.0.0 Safari/537.36" etag="leL-CTTgZ_okgkKqkfij" version="22.1.17" type="device">
  <diagram id="YrfzH3xwVrYN7FTBeiER" name="Page-1">
    <mxGraphModel dx="882" dy="578" grid="1" gridSize="10" guides="1" tooltips="1" connect="1" arrows="1" fold="1" page="1" pageScale="1" pageWidth="850" pageHeight="1100" math="0" shadow="0">
      <root>
        <mxCell id="0" />
        <mxCell id="1" parent="0" />
        <mxCell id="mqSsK2LMTOLCvKQ29jRd-8" style="edgeStyle=orthogonalEdgeStyle;rounded=0;orthogonalLoop=1;jettySize=auto;html=1;exitX=0;exitY=0.5;exitDx=0;exitDy=0;entryX=1;entryY=0.5;entryDx=0;entryDy=0;" edge="1" parent="1" source="EMqv_BoD_W-4mQrSMWEo-1" target="mqSsK2LMTOLCvKQ29jRd-1">
          <mxGeometry relative="1" as="geometry" />
        </mxCell>
        <mxCell id="EMqv_BoD_W-4mQrSMWEo-1" value="User" style="rounded=1;whiteSpace=wrap;html=1;" parent="1" vertex="1">
          <mxGeometry x="320" y="40" width="120" height="60" as="geometry" />
        </mxCell>
        <mxCell id="mqSsK2LMTOLCvKQ29jRd-9" style="edgeStyle=orthogonalEdgeStyle;rounded=0;orthogonalLoop=1;jettySize=auto;html=1;exitX=0.5;exitY=0;exitDx=0;exitDy=0;entryX=0.5;entryY=1;entryDx=0;entryDy=0;" edge="1" parent="1" source="EMqv_BoD_W-4mQrSMWEo-2" target="EMqv_BoD_W-4mQrSMWEo-1">
          <mxGeometry relative="1" as="geometry" />
        </mxCell>
        <mxCell id="EMqv_BoD_W-4mQrSMWEo-2" value="Load balancer" style="rounded=1;whiteSpace=wrap;html=1;" parent="1" vertex="1">
          <mxGeometry x="320" y="160" width="120" height="60" as="geometry" />
        </mxCell>
        <mxCell id="mqSsK2LMTOLCvKQ29jRd-10" style="edgeStyle=orthogonalEdgeStyle;rounded=0;orthogonalLoop=1;jettySize=auto;html=1;exitX=0.5;exitY=0;exitDx=0;exitDy=0;entryX=0.5;entryY=1;entryDx=0;entryDy=0;" edge="1" parent="1" source="EMqv_BoD_W-4mQrSMWEo-3" target="EMqv_BoD_W-4mQrSMWEo-2">
          <mxGeometry relative="1" as="geometry" />
        </mxCell>
        <mxCell id="mqSsK2LMTOLCvKQ29jRd-11" style="edgeStyle=orthogonalEdgeStyle;rounded=0;orthogonalLoop=1;jettySize=auto;html=1;exitX=0;exitY=0.5;exitDx=0;exitDy=0;entryX=0.5;entryY=0;entryDx=0;entryDy=0;" edge="1" parent="1" source="EMqv_BoD_W-4mQrSMWEo-3" target="EMqv_BoD_W-4mQrSMWEo-4">
          <mxGeometry relative="1" as="geometry" />
        </mxCell>
        <mxCell id="mqSsK2LMTOLCvKQ29jRd-12" style="edgeStyle=orthogonalEdgeStyle;rounded=0;orthogonalLoop=1;jettySize=auto;html=1;exitX=1;exitY=0.5;exitDx=0;exitDy=0;entryX=0.5;entryY=0;entryDx=0;entryDy=0;" edge="1" parent="1" source="EMqv_BoD_W-4mQrSMWEo-3" target="EMqv_BoD_W-4mQrSMWEo-5">
          <mxGeometry relative="1" as="geometry" />
        </mxCell>
        <mxCell id="EMqv_BoD_W-4mQrSMWEo-3" value="API servers" style="rounded=1;whiteSpace=wrap;html=1;" parent="1" vertex="1">
          <mxGeometry x="320" y="280" width="120" height="60" as="geometry" />
        </mxCell>
        <mxCell id="EMqv_BoD_W-4mQrSMWEo-4" value="Metadata cache" style="rounded=1;whiteSpace=wrap;html=1;" parent="1" vertex="1">
          <mxGeometry x="200" y="400" width="120" height="60" as="geometry" />
        </mxCell>
        <mxCell id="EMqv_BoD_W-4mQrSMWEo-5" value="Metadata DB" style="rounded=1;whiteSpace=wrap;html=1;" parent="1" vertex="1">
          <mxGeometry x="440" y="400" width="120" height="60" as="geometry" />
        </mxCell>
        <mxCell id="mqSsK2LMTOLCvKQ29jRd-19" style="edgeStyle=orthogonalEdgeStyle;rounded=0;orthogonalLoop=1;jettySize=auto;html=1;exitX=0.5;exitY=1;exitDx=0;exitDy=0;entryX=0.5;entryY=0;entryDx=0;entryDy=0;" edge="1" parent="1" source="mqSsK2LMTOLCvKQ29jRd-1" target="mqSsK2LMTOLCvKQ29jRd-2">
          <mxGeometry relative="1" as="geometry" />
        </mxCell>
        <mxCell id="mqSsK2LMTOLCvKQ29jRd-1" value="Original storage" style="rounded=1;whiteSpace=wrap;html=1;" vertex="1" parent="1">
          <mxGeometry x="80" y="40" width="120" height="60" as="geometry" />
        </mxCell>
        <mxCell id="mqSsK2LMTOLCvKQ29jRd-16" style="edgeStyle=orthogonalEdgeStyle;rounded=0;orthogonalLoop=1;jettySize=auto;html=1;exitX=1;exitY=0.5;exitDx=0;exitDy=0;entryX=0;entryY=0.5;entryDx=0;entryDy=0;" edge="1" parent="1" source="mqSsK2LMTOLCvKQ29jRd-2" target="mqSsK2LMTOLCvKQ29jRd-3">
          <mxGeometry relative="1" as="geometry" />
        </mxCell>
        <mxCell id="mqSsK2LMTOLCvKQ29jRd-17" style="edgeStyle=orthogonalEdgeStyle;rounded=0;orthogonalLoop=1;jettySize=auto;html=1;exitX=0.5;exitY=1;exitDx=0;exitDy=0;" edge="1" parent="1" source="mqSsK2LMTOLCvKQ29jRd-2" target="mqSsK2LMTOLCvKQ29jRd-6">
          <mxGeometry relative="1" as="geometry" />
        </mxCell>
        <mxCell id="mqSsK2LMTOLCvKQ29jRd-2" value="Encoding servers" style="rounded=1;whiteSpace=wrap;html=1;" vertex="1" parent="1">
          <mxGeometry x="80" y="520" width="120" height="60" as="geometry" />
        </mxCell>
        <mxCell id="mqSsK2LMTOLCvKQ29jRd-15" style="edgeStyle=orthogonalEdgeStyle;rounded=0;orthogonalLoop=1;jettySize=auto;html=1;exitX=1;exitY=0.5;exitDx=0;exitDy=0;entryX=0;entryY=0.5;entryDx=0;entryDy=0;" edge="1" parent="1" source="mqSsK2LMTOLCvKQ29jRd-3" target="mqSsK2LMTOLCvKQ29jRd-5">
          <mxGeometry relative="1" as="geometry" />
        </mxCell>
        <mxCell id="mqSsK2LMTOLCvKQ29jRd-3" value="Completion queue" style="rounded=1;whiteSpace=wrap;html=1;" vertex="1" parent="1">
          <mxGeometry x="320" y="520" width="120" height="60" as="geometry" />
        </mxCell>
        <mxCell id="mqSsK2LMTOLCvKQ29jRd-13" style="edgeStyle=orthogonalEdgeStyle;rounded=0;orthogonalLoop=1;jettySize=auto;html=1;exitX=0.5;exitY=0;exitDx=0;exitDy=0;entryX=1;entryY=0.5;entryDx=0;entryDy=0;" edge="1" parent="1" source="mqSsK2LMTOLCvKQ29jRd-5" target="EMqv_BoD_W-4mQrSMWEo-5">
          <mxGeometry relative="1" as="geometry" />
        </mxCell>
        <mxCell id="mqSsK2LMTOLCvKQ29jRd-14" style="edgeStyle=orthogonalEdgeStyle;rounded=0;orthogonalLoop=1;jettySize=auto;html=1;exitX=0.25;exitY=0;exitDx=0;exitDy=0;" edge="1" parent="1" source="mqSsK2LMTOLCvKQ29jRd-5" target="EMqv_BoD_W-4mQrSMWEo-4">
          <mxGeometry relative="1" as="geometry" />
        </mxCell>
        <mxCell id="mqSsK2LMTOLCvKQ29jRd-5" value="Completion handler" style="rounded=1;whiteSpace=wrap;html=1;" vertex="1" parent="1">
          <mxGeometry x="560" y="520" width="120" height="60" as="geometry" />
        </mxCell>
        <mxCell id="mqSsK2LMTOLCvKQ29jRd-18" style="edgeStyle=orthogonalEdgeStyle;rounded=0;orthogonalLoop=1;jettySize=auto;html=1;exitX=1;exitY=0.5;exitDx=0;exitDy=0;entryX=0;entryY=0.5;entryDx=0;entryDy=0;" edge="1" parent="1" source="mqSsK2LMTOLCvKQ29jRd-6" target="mqSsK2LMTOLCvKQ29jRd-7">
          <mxGeometry relative="1" as="geometry" />
        </mxCell>
        <mxCell id="mqSsK2LMTOLCvKQ29jRd-6" value="Encoded storage" style="rounded=1;whiteSpace=wrap;html=1;" vertex="1" parent="1">
          <mxGeometry x="80" y="640" width="120" height="60" as="geometry" />
        </mxCell>
        <mxCell id="mqSsK2LMTOLCvKQ29jRd-7" value="CDN" style="rounded=1;whiteSpace=wrap;html=1;" vertex="1" parent="1">
          <mxGeometry x="320" y="640" width="120" height="60" as="geometry" />
        </mxCell>
      </root>
    </mxGraphModel>
  </diagram>
</mxfile>
